<svg width="20" height="21" viewBox="0 0 20 21" fill="none" xmlns="http://www.w3.org/2000/svg">
<g id="big lotus flower">
<path id="Vector" d="M12.86 8.20163C12.7949 8.20158 12.7319 8.17822 12.6825 8.13577C12.6331 8.09333 12.6005 8.03461 12.5906 7.97023C12.1988 5.42343 9.83665 3.17023 9.81305 3.14723C9.76038 3.09761 9.72957 3.0291 9.72742 2.95677C9.72526 2.88443 9.75193 2.81421 9.80155 2.76153C9.85117 2.70886 9.91968 2.67806 9.99202 2.6759C10.0643 2.67375 10.1346 2.70041 10.1872 2.75003C10.2898 2.84683 12.7092 5.15243 13.13 7.88743C13.141 7.95898 13.123 8.03193 13.0802 8.09028C13.0374 8.14862 12.9732 8.18759 12.9016 8.19863C12.8879 8.20062 12.874 8.20162 12.86 8.20163Z" fill="#5A7376" stroke="#5A7376" stroke-width="0.5"/>
<path id="Vector_2" d="M7.13997 8.20163C7.12598 8.20162 7.11201 8.20061 7.09817 8.19863C7.02665 8.1876 6.96245 8.14862 6.91966 8.09026C6.87687 8.03191 6.85899 7.95896 6.86997 7.88743C7.28997 5.15243 9.70997 2.84743 9.81277 2.75003C9.86544 2.70041 9.93566 2.67375 10.008 2.6759C10.0803 2.67806 10.1488 2.70886 10.1985 2.76153C10.2481 2.81421 10.2748 2.88443 10.2726 2.95677C10.2704 3.0291 10.2396 3.09761 10.187 3.14723C10.1632 3.16963 7.80097 5.42343 7.40937 7.97023C7.39948 8.03461 7.36689 8.09333 7.31748 8.13577C7.26807 8.17822 7.2051 8.20158 7.13997 8.20163ZM5.34657 7.45523C5.28249 7.45514 5.22049 7.4325 5.17142 7.39129C5.12235 7.35008 5.08934 7.29293 5.07817 7.22983C4.90417 6.22396 4.96856 5.1913 5.26617 4.21483C5.27799 4.18098 5.29636 4.14978 5.32023 4.12303C5.34411 4.09627 5.37302 4.07448 5.40531 4.0589C5.43761 4.04332 5.47266 4.03425 5.50846 4.03222C5.54426 4.03018 5.58011 4.03521 5.61397 4.04703C5.64782 4.05885 5.67902 4.07722 5.70577 4.1011C5.73253 4.12497 5.75432 4.15388 5.7699 4.18618C5.78548 4.21848 5.79455 4.25353 5.79658 4.28933C5.79862 4.32513 5.79359 4.36098 5.78177 4.39483C5.51805 5.28352 5.46113 6.22076 5.61537 7.13483C5.62164 7.17011 5.6209 7.20628 5.61319 7.24127C5.60548 7.27625 5.59094 7.30938 5.57042 7.33875C5.54989 7.36812 5.52378 7.39315 5.49357 7.41242C5.46336 7.43168 5.42965 7.44481 5.39437 7.45103C5.37858 7.45381 5.36259 7.45521 5.34657 7.45523Z" fill="#5A7376" stroke="#5A7376" stroke-width="0.5"/>
<path id="Vector_3" d="M7.78261 6.24961C7.74293 6.24966 7.70372 6.24104 7.66772 6.22435C7.63173 6.20767 7.59981 6.18332 7.57421 6.15301C6.98531 5.46831 6.25108 4.92361 5.425 4.55861C5.35895 4.53148 5.30617 4.47953 5.27799 4.41391C5.24981 4.34829 5.24849 4.27424 5.27431 4.20765C5.30013 4.14107 5.35102 4.08727 5.41607 4.05779C5.48111 4.02832 5.55512 4.02553 5.6222 4.05001C6.53508 4.44489 7.34535 5.04368 7.99081 5.80041C8.02438 5.84015 8.0459 5.88865 8.05284 5.9402C8.05978 5.99176 8.05184 6.04422 8.02997 6.09142C8.00809 6.13861 7.97319 6.17858 7.92937 6.2066C7.88554 6.23463 7.83462 6.24955 7.78261 6.24961ZM14.6532 7.45501C14.6372 7.45492 14.6212 7.45345 14.6054 7.45061C14.5342 7.43794 14.4709 7.39749 14.4294 7.33816C14.388 7.27883 14.3718 7.20547 14.3844 7.13421C14.5387 6.22017 14.4819 5.28295 14.2184 4.39421C14.1945 4.32587 14.1988 4.25084 14.2302 4.18563C14.2617 4.12043 14.3178 4.07038 14.3861 4.04651C14.4545 4.02264 14.5295 4.0269 14.5947 4.05835C14.6599 4.0898 14.7099 4.14587 14.7338 4.21421C15.0314 5.19076 15.0957 6.22349 14.9216 7.22941C14.9105 7.29255 14.8775 7.34975 14.8284 7.391C14.7793 7.43224 14.7173 7.45491 14.6532 7.45501Z" fill="#5A7376" stroke="#5A7376" stroke-width="0.5"/>
<path id="Vector_4" d="M12.217 6.25034C12.165 6.25028 12.1141 6.23536 12.0703 6.20733C12.0264 6.17931 11.9915 6.13934 11.9696 6.09215C11.9478 6.04495 11.9398 5.99249 11.9468 5.94093C11.9537 5.88938 11.9752 5.84088 12.0088 5.80115C12.6545 5.04449 13.4649 4.44572 14.3778 4.05075C14.4453 4.02454 14.5203 4.0262 14.5866 4.05537C14.6528 4.08453 14.7047 4.1388 14.7309 4.20625C14.7571 4.27369 14.7555 4.34878 14.7263 4.415C14.6971 4.48122 14.6429 4.53314 14.5754 4.55935C13.749 4.92418 13.0144 5.46889 12.4252 6.15375C12.3996 6.18404 12.3678 6.20838 12.3318 6.22506C12.2958 6.24175 12.2567 6.25038 12.217 6.25034ZM9.38001 17.9747C2.88501 17.9747 2.27421 11.4547 2.06901 9.26554C2.04701 9.03054 2.03021 8.84555 2.01041 8.72775C1.82901 7.64215 1.17141 7.27174 1.14341 7.25674C1.08999 7.2279 1.0477 7.18209 1.02321 7.12655C0.998725 7.071 0.993436 7.00887 1.00818 6.94998C1.02293 6.89109 1.05687 6.83879 1.10464 6.80134C1.15242 6.76388 1.21131 6.74341 1.27201 6.74315H3.94001C5.61909 6.74505 7.22885 7.41295 8.41609 8.6003C9.60332 9.78764 10.2711 11.3975 10.2728 13.0765V17.6825C10.2728 17.752 10.2464 17.8188 10.1988 17.8694C10.1512 17.92 10.0861 17.9505 10.0168 17.9547C9.80001 17.9683 9.58621 17.9747 9.38001 17.9747ZM1.97541 7.28895C2.27851 7.68229 2.47603 8.14659 2.54921 8.63774C2.57141 8.77055 2.58921 8.96634 2.61301 9.21434C2.95421 12.8525 4.07301 17.6295 9.72701 17.4227V13.0765C9.72527 11.5422 9.11502 10.0712 8.03015 8.98623C6.94527 7.90124 5.47434 7.29085 3.94001 7.28895H1.97541Z" fill="#5A7376" stroke="#5A7376" stroke-width="0.5"/>
<path id="Vector_5" d="M9.99977 17.9545C9.97566 17.9545 9.95166 17.9514 9.92837 17.9451C7.61557 17.3221 6.37717 14.0051 5.64697 11.5651C4.52697 7.82174 1.36697 7.30513 1.23197 7.28513C1.16036 7.27453 1.0959 7.23591 1.05277 7.17777C1.00963 7.11963 0.991363 7.04674 1.00197 6.97514C1.01258 6.90353 1.0512 6.83907 1.10934 6.79593C1.16747 6.7528 1.24036 6.73453 1.31197 6.74514C1.34817 6.75034 4.94757 7.32374 6.16997 11.4095C6.86277 13.7247 8.01977 16.8661 10.0708 17.4181C10.1345 17.4355 10.1898 17.4754 10.2264 17.5304C10.2629 17.5854 10.2783 17.6519 10.2697 17.7174C10.261 17.7829 10.2289 17.843 10.1792 17.8866C10.1296 17.9302 10.0658 17.9544 9.99977 17.9545Z" fill="#5A7376" stroke="#5A7376" stroke-width="0.5"/>
<path id="Vector_6" d="M10.6202 17.9748C10.4142 17.9748 10.2022 17.9681 9.98403 17.9548C9.91471 17.9505 9.84963 17.92 9.80205 17.8694C9.75448 17.8188 9.728 17.752 9.72803 17.6826V13.0766C9.72977 11.3976 10.3974 9.78786 11.5845 8.60053C12.7716 7.4132 14.3812 6.74523 16.0602 6.74316H18.7274C18.7885 6.7431 18.8478 6.76352 18.8959 6.80117C18.944 6.83881 18.978 6.8915 18.9926 6.95079C19.0072 7.01009 19.0015 7.07257 18.9764 7.12822C18.9512 7.18388 18.9082 7.22949 18.854 7.25776C18.828 7.27196 18.1698 7.64216 17.989 8.72776C17.969 8.84616 17.9522 9.03016 17.9304 9.26476C17.7252 11.453 17.1138 17.9748 10.6202 17.9748ZM10.2738 17.4228C15.94 17.6344 17.0468 12.8524 17.388 9.21376C17.411 8.96616 17.4294 8.77056 17.4516 8.63796C17.5245 8.14666 17.7221 7.68223 18.0254 7.28896H16.0602C14.5259 7.29082 13.0549 7.90119 11.97 8.98618C10.885 10.0712 10.2748 11.5422 10.273 13.0766L10.2738 17.4228Z" fill="#5A7376" stroke="#5A7376" stroke-width="0.5"/>
<path id="Vector_7" d="M9.99995 17.9549C9.9339 17.9547 9.87017 17.9305 9.82058 17.8869C9.77099 17.8433 9.7389 17.7831 9.73025 17.7177C9.72161 17.6522 9.737 17.5858 9.77357 17.5308C9.81015 17.4758 9.86542 17.4359 9.92915 17.4185C11.98 16.8663 13.1368 13.7251 13.8292 11.4101C15.052 7.32514 18.6514 6.75094 18.6874 6.74514C18.759 6.73453 18.8319 6.7528 18.89 6.79593C18.9481 6.83907 18.9867 6.90353 18.9974 6.97514C19.008 7.04674 18.9897 7.11963 18.9466 7.17777C18.9034 7.23591 18.839 7.27453 18.7674 7.28514C18.6334 7.30514 15.472 7.82274 14.3522 11.5661C13.6224 14.0061 12.3842 17.3219 10.071 17.9461C10.0478 17.9521 10.0239 17.9551 9.99995 17.9549Z" fill="#5A7376" stroke="#5A7376" stroke-width="0.5"/>
</g>
</svg>
