<svg width="20" height="21" viewBox="0 0 20 21" fill="none" xmlns="http://www.w3.org/2000/svg">
<g id="Bot">
<path id="Vector" d="M10 8.45023C9.88056 8.45023 9.76359 8.416 9.66297 8.35157C9.56235 8.28714 9.48231 8.19522 9.43232 8.0867C9.38234 7.97818 9.36451 7.85761 9.38094 7.73927C9.39737 7.62092 9.44738 7.50977 9.52504 7.41898L12.45 3.98148C12.5034 3.9191 12.5685 3.86784 12.6417 3.83063C12.7148 3.79341 12.7946 3.77097 12.8764 3.76459C12.9583 3.7582 13.0405 3.768 13.1186 3.79342C13.1966 3.81884 13.2689 3.85938 13.3313 3.91273C13.3937 3.96608 13.4449 4.03119 13.4821 4.10435C13.5194 4.17751 13.5418 4.25728 13.5482 4.33911C13.5546 4.42094 13.5448 4.50323 13.5193 4.58128C13.4939 4.65932 13.4534 4.7316 13.4 4.79398L10.475 8.23148C10.4164 8.30008 10.3435 8.35516 10.2615 8.39292C10.1795 8.43068 10.0903 8.45023 10 8.45023Z" fill="#5A7376"/>
<path id="Vector_2" d="M13.75 5.3252C13.3792 5.3252 13.0166 5.21523 12.7083 5.0092C12.4 4.80317 12.1596 4.51034 12.0177 4.16773C11.8758 3.82512 11.8387 3.44812 11.911 3.0844C11.9834 2.72069 12.162 2.38659 12.4242 2.12437C12.6864 1.86215 13.0205 1.68357 13.3842 1.61122C13.7479 1.53888 14.1249 1.57601 14.4675 1.71792C14.8101 1.85984 15.103 2.10016 15.309 2.4085C15.515 2.71684 15.625 3.07936 15.625 3.4502C15.625 3.94748 15.4275 4.42439 15.0758 4.77602C14.7242 5.12765 14.2473 5.3252 13.75 5.3252ZM13.75 2.8252C13.6264 2.8252 13.5056 2.86185 13.4028 2.93053C13.3 2.9992 13.2199 3.09682 13.1726 3.21102C13.1253 3.32522 13.1129 3.45089 13.137 3.57213C13.1611 3.69337 13.2207 3.80473 13.3081 3.89214C13.3955 3.97955 13.5068 4.03907 13.6281 4.06319C13.7493 4.0873 13.875 4.07493 13.9892 4.02762C14.1034 3.98032 14.201 3.90021 14.2697 3.79743C14.3383 3.69465 14.375 3.57381 14.375 3.4502C14.375 3.28444 14.3092 3.12546 14.1919 3.00825C14.0747 2.89104 13.9158 2.8252 13.75 2.8252Z" fill="#5A7376"/>
<path id="Vector_3" d="M15.625 19.0752H4.375C4.20924 19.0752 4.05027 19.0093 3.93306 18.8921C3.81585 18.7749 3.75 18.616 3.75 18.4502V7.8252C3.75 7.65944 3.81585 7.50046 3.93306 7.38325C4.05027 7.26604 4.20924 7.2002 4.375 7.2002H15.625C15.7908 7.2002 15.9497 7.26604 16.0669 7.38325C16.1842 7.50046 16.25 7.65944 16.25 7.8252V18.4502C16.25 18.616 16.1842 18.7749 16.0669 18.8921C15.9497 19.0093 15.7908 19.0752 15.625 19.0752ZM5 17.8252H15V8.4502H5V17.8252Z" fill="#5A7376"/>
<path id="Vector_4" d="M12.5 9.7002H11.875C11.5298 9.7002 11.25 9.98002 11.25 10.3252V11.5752C11.25 11.9204 11.5298 12.2002 11.875 12.2002H12.5C12.8452 12.2002 13.125 11.9204 13.125 11.5752V10.3252C13.125 9.98002 12.8452 9.7002 12.5 9.7002Z" fill="#5A7376"/>
<path id="Vector_5" d="M8.125 9.7002H7.5C7.15482 9.7002 6.875 9.98002 6.875 10.3252V11.5752C6.875 11.9204 7.15482 12.2002 7.5 12.2002H8.125C8.47018 12.2002 8.75 11.9204 8.75 11.5752V10.3252C8.75 9.98002 8.47018 9.7002 8.125 9.7002Z" fill="#5A7376"/>
<path id="Vector_6" d="M11.875 15.9502H8.125C7.95924 15.9502 7.80027 15.8844 7.68306 15.7672C7.56585 15.65 7.5 15.491 7.5 15.3252C7.5 15.1595 7.56585 15.0005 7.68306 14.8833C7.80027 14.7661 7.95924 14.7002 8.125 14.7002H11.875C12.0408 14.7002 12.1997 14.7661 12.3169 14.8833C12.4342 15.0005 12.5 15.1595 12.5 15.3252C12.5 15.491 12.4342 15.65 12.3169 15.7672C12.1997 15.8844 12.0408 15.9502 11.875 15.9502ZM17.5 15.2877H15.625C15.4592 15.2877 15.3003 15.2219 15.1831 15.1047C15.0658 14.9875 15 14.8285 15 14.6627C15 14.497 15.0658 14.338 15.1831 14.2208C15.3003 14.1036 15.4592 14.0377 15.625 14.0377H16.875V10.9502H15.625C15.4592 10.9502 15.3003 10.8844 15.1831 10.7672C15.0658 10.65 15 10.491 15 10.3252C15 10.1595 15.0658 10.0005 15.1831 9.8833C15.3003 9.76609 15.4592 9.70024 15.625 9.70024H17.5C17.6658 9.70024 17.8247 9.76609 17.9419 9.8833C18.0592 10.0005 18.125 10.1595 18.125 10.3252V14.6627C18.125 14.8285 18.0592 14.9875 17.9419 15.1047C17.8247 15.2219 17.6658 15.2877 17.5 15.2877ZM4.375 15.2877H2.5C2.33424 15.2877 2.17527 15.2219 2.05806 15.1047C1.94085 14.9875 1.875 14.8285 1.875 14.6627V10.3252C1.875 10.1595 1.94085 10.0005 2.05806 9.8833C2.17527 9.76609 2.33424 9.70024 2.5 9.70024H4.375C4.54076 9.70024 4.69973 9.76609 4.81694 9.8833C4.93415 10.0005 5 10.1595 5 10.3252C5 10.491 4.93415 10.65 4.81694 10.7672C4.69973 10.8844 4.54076 10.9502 4.375 10.9502H3.125V14.0377H4.375C4.54076 14.0377 4.69973 14.1036 4.81694 14.2208C4.93415 14.338 5 14.497 5 14.6627C5 14.8285 4.93415 14.9875 4.81694 15.1047C4.69973 15.2219 4.54076 15.2877 4.375 15.2877ZM10 8.45024C9.90972 8.45024 9.82052 8.43069 9.73852 8.39293C9.65652 8.35517 9.58368 8.30009 9.525 8.23149L7.025 5.28774C6.91919 5.16212 6.86708 4.99989 6.87994 4.83614C6.89281 4.6724 6.96961 4.5203 7.09375 4.41274C7.15613 4.35939 7.2284 4.31884 7.30645 4.29342C7.38449 4.268 7.46678 4.2582 7.54861 4.26459C7.63045 4.27097 7.71022 4.29341 7.78338 4.33063C7.85654 4.36785 7.92165 4.41911 7.975 4.48149L10.475 7.41899C10.5527 7.50978 10.6027 7.62094 10.6191 7.73928C10.6355 7.85762 10.6177 7.97819 10.5677 8.08671C10.5177 8.19523 10.4377 8.28715 10.3371 8.35158C10.2365 8.41601 10.1195 8.45025 10 8.45024Z" fill="#5A7376"/>
<path id="Vector_7" d="M6.66895 5.81934C6.29811 5.81934 5.93559 5.70937 5.62725 5.50334C5.31891 5.29731 5.07859 5.00448 4.93667 4.66187C4.79476 4.31926 4.75763 3.94226 4.82997 3.57854C4.90232 3.21483 5.0809 2.88074 5.34312 2.61851C5.60534 2.35629 5.93944 2.17771 6.30315 2.10536C6.66687 2.03302 7.04387 2.07015 7.38648 2.21206C7.72909 2.35398 8.02192 2.5943 8.22795 2.90264C8.43398 3.21098 8.54395 3.5735 8.54395 3.94434C8.54395 4.44162 8.3464 4.91853 7.99477 5.27016C7.64314 5.62179 7.16623 5.81934 6.66895 5.81934ZM6.66895 3.31934C6.54533 3.31934 6.4245 3.35599 6.32171 3.42467C6.21893 3.49334 6.13883 3.59096 6.09152 3.70516C6.04422 3.81936 6.03184 3.94503 6.05596 4.06627C6.08007 4.18751 6.1396 4.29887 6.227 4.38628C6.31441 4.47369 6.42578 4.53321 6.54702 4.55733C6.66825 4.58144 6.79392 4.56907 6.90812 4.52176C7.02233 4.47446 7.11994 4.39435 7.18862 4.29157C7.25729 4.18879 7.29395 4.06795 7.29395 3.94434C7.29395 3.77858 7.2281 3.61961 7.11089 3.5024C6.99368 3.38519 6.83471 3.31934 6.66895 3.31934Z" fill="#5A7376"/>
</g>
</svg>
